PathFileType	3	(X/Y/Z)	D:\minhoCalibration\240510\subject1_KPNP\preferred\preferred17.trc
DataRate	CameraRate	NumFrames	NumMarkers	Units	OrigDataRate	OrigDataStartFrame	OrigNumFrames
200.0	200.0	24	10	mm	200.0	419	190	
Frame#	Time	Left_Ankle_Outer1			Left_Ankle_Inner1			Left_Knee_Outer1			Left_Knee_Inner1			Left_Wrist1			Right_Wrist1			Right_Knee_Inner1			Right_Knee_Outer1			Right_Ankle_Inner1			Right_Ankle_Outer1			
		X1	Y1	Z1	X2	Y2	Z2	X3	Y3	Z3	X4	Y4	Z4	X5	Y5	Z5	X6	Y6	Z6	X7	Y7	Z7	X8	Y8	Z8	X9	Y9	Z9	X10	Y10	Z10	
419	2.085	-527.80359	144.03716	-550.19135	-567.27686	154.90831	-510.19031	-378.04727	565.55865	-465.14163	-468.20966	545.99811	-407.79813	-436.8497	1003.1309	-687.38788	-619.85553	1195.5439	-436.32928	-306.62845	1029.7112	-147.74728	-349.97095	1120.8802	-134.87836	-321.013	981.67291	296.00876	-261.13901	1092.6519	317.19525
420	2.09	-526.17847	144.71692	-549.03076	-566.3761	155.21466	-509.95273	-379.0538	566.38855	-457.97485	-470.46774	546.50995	-403.37003	-434.53433	1002.858	-681.83441	-623.92914	1195.3729	-434.17877	-307.82968	1029.6046	-147.55354	-351.25467	1121.8147	-133.78845	-327.70471	975.2478	296.48514	-268.44931	1079.5756	316.5694
421	2.095	-524.67999	145.7059	-547.86432	-565.53229	155.78519	-509.44418	-379.91254	567.41895	-450.91107	-473.52295	547.29852	-398.50421	-432.59869	1002.607	-676.46844	-627.71411	1195.0011	-432.73346	-308.85556	1029.6182	-148.7449	-354.6077	1121.7601	-133.14055	-329.63818	964.44519	297.33246	-275.12073	1067.8529	320.28629
422	2.1	-523.52032	146.80132	-546.18439	-564.3985	156.64742	-508.75235	-380.69022	568.4173	-443.94534	-476.43027	548.51117	-394.5062	-430.76331	1002.2801	-671.37823	-631.47296	1194.5194	-431.65454	-309.8978	1029.8689	-149.51118	-358.89478	1120.7234	-132.25912	-332.13593	953.52173	296.87744	-281.06631	1056.7527	323.68265
423	2.105	-522.08606	148.56499	-544.93188	-563.84241	157.90221	-507.5993	-381.23093	569.53082	-437.30176	-479.15271	549.66486	-390.95413	-428.81778	1001.8676	-666.45532	-635.15771	1193.9926	-430.77676	-308.55655	1030.7048	-151.11693	-364.81412	1118.8954	-129.35434	-342.10287	946.73389	296.20929	-286.46585	1046.1658	326.7572
424	2.11	-521.02112	150.12254	-543.35358	-563.13647	159.14178	-506.37555	-381.96082	570.4613	-431.1622	-481.14859	551.13086	-387.78595	-427.09607	1001.35	-661.5293	-638.88837	1193.4417	-429.65875	-307.0531	1031.6031	-151.82076	-370.97916	1116.524	-125.51883	-341.07318	932.47217	296.31046	-291.7457	1035.5031	329.53085
425	2.115	-520.05139	151.74352	-541.61688	-562.51996	160.30351	-505.07425	-382.46384	571.58466	-425.58743	-483.0737	552.31976	-384.28351	-425.4425	1000.9733	-656.71686	-642.43738	1192.5631	-428.45404	-306.30545	1031.7832	-150.38138	-376.95123	1113.0591	-121.10966	-346.69254	920.90845	295.07401	-297.26907	1023.9761	330.94696
426	2.12	-519.22015	153.26498	-539.92676	-561.79053	161.31303	-503.465	-383.05585	572.76282	-420.72247	-484.23593	553.38995	-381.16092	-423.79791	1000.9802	-652.0285	-645.97864	1191.5408	-426.83731	-306.87891	1029.8929	-146.57915	-382.31854	1108.3242	-116.67423	-350.28394	908.00842	293.71628	-305.53992	1012.2972	333.72928
427	2.125	-518.5412	154.67223	-538.24982	-561.04883	162.90378	-502.29846	-383.633	573.92035	-416.57953	-484.819	554.43964	-377.99561	-422.23105	1001.2959	-647.74585	-649.49414	1190.2783	-424.27597	-308.36761	1025.4669	-142.55481	-386.32657	1102.9021	-112.23031	-350.99106	895.42328	294.94794	-314.09256	1001.4458	337.03632
428	2.13	-517.84009	156.05432	-536.83533	-560.72394	163.97037	-500.99295	-384.02124	575.16248	-413.08649	-484.96887	554.89984	-375.58804	-420.84988	1002.0164	-643.80927	-652.66919	1188.5927	-422.42172	-311.0925	1019.517	-138.67575	-388.89502	1096.963	-107.77585	-355.19955	880.3114	293.27765	-323.34598	988.28931	339.09131
429	2.135	-517.12677	157.32394	-535.61389	-560.12323	165.01881	-499.67068	-384.19284	576.31689	-410.28796	-485.30984	555.61957	-372.79773	-419.55588	1003.1929	-640.1759	-655.81342	1186.6262	-420.55386	-315.01816	1012.6375	-134.99742	-390.49792	1090.6431	-103.41973	-362.26291	865.13281	289.92221	-332.7229	975.37323	343.01276
430	2.14	-516.33765	158.49382	-534.70581	-559.41528	165.99733	-498.86606	-384.34357	577.21771	-408.14758	-485.10538	556.43201	-370.63281	-418.44543	1004.5744	-636.93127	-658.96185	1184.4674	-418.19629	-319.2829	1005.2563	-131.95844	-391.6012	1084.1943	-99.307922	-367.27353	849.02539	287.58612	-342.28214	961.92853	346.40326
431	2.145	-515.43018	159.35767	-534.02765	-558.80505	166.76601	-498.12811	-384.72897	577.75665	-406.27167	-484.70389	556.76202	-369.45981	-417.49136	1006.1514	-633.9989	-661.71973	1182.009	-416.60788	-323.93173	997.18091	-129.28564	-392.797	1077.6106	-95.561775	-374.48981	833.65875	285.6257	-352.31461	945.9527	346.48138
432	2.15	-514.41461	160.04369	-533.55194	-557.86023	167.3755	-497.73438	-385.04535	578.13843	-404.76828	-484.61237	557.10962	-368.258	-416.5994	1007.7789	-631.19885	-664.65173	1179.4208	-414.71875	-328.59998	988.99829	-127.19329	-394.78299	1070.843	-92.008751	-381.0907	816.64026	282.35886	-362.95972	929.0351	346.98425
433	2.155	-513.24133	160.58215	-533.39142	-556.74976	167.87779	-497.70282	-384.84457	578.59967	-403.89645	-484.40909	557.61725	-367.15002	-415.80042	1009.4374	-628.51056	-667.12054	1176.7008	-413.18759	-333.78796	981.00739	-125.4213	-397.95221	1064.1542	-88.68644	-387.81177	799.81427	278.38797	-373.00095	911.68231	346.71011
434	2.16	-511.90628	160.98927	-533.39874	-555.76459	168.22067	-497.86694	-384.70367	578.98193	-403.25323	-484.52313	557.60083	-366.45078	-415.05234	1011.1207	-625.89301	-669.53491	1173.933	-411.47598	-338.96109	973.23627	-124.18895	-401.8732	1057.3311	-85.931808	-397.23303	783.59442	274.64789	-383.21185	893.09204	345.57587
435	2.165	-510.61292	161.18555	-533.61017	-554.4848	168.41107	-498.4584	-384.59418	579.17523	-402.80042	-484.33621	557.9566	-366.33289	-414.50455	1012.5965	-623.17242	-671.55151	1171.4033	-410.21024	-344.06671	966.12378	-123.38478	-406.72394	1050.4086	-83.530899	-405.81265	766.2464	270.38895	-393.04288	874.11646	344.27728
436	2.17	-509.19867	161.16359	-534.0376	-553.36041	168.35939	-499.01877	-384.48846	579.33154	-402.51047	-484.22772	557.55725	-366.63153	-414.09937	1014.1523	-620.33179	-673.61578	1169.2518	-409.01584	-349.14227	959.19562	-122.8704	-412.10873	1043.3475	-81.519569	-413.17529	748.90173	264.22083	-402.88614	854.15002	341.53372
437	2.175	-507.69925	161.00253	-534.55615	-551.97449	168.24823	-500.17874	-384.48856	579.33069	-402.3266	-484.38388	557.28204	-366.83466	-413.3107	1015.4636	-618.177	-675.61652	1167.308	-407.98575	-352.56448	953.60217	-123.34135	-417.72089	1036.1304	-79.771225	-422.93777	730.25336	258.17889	-412.36942	833.69824	338.81061
438	2.18	-506.0795	160.86562	-535.4978	-550.77643	167.92996	-501.30701	-384.5419	579.27075	-402.2319	-484.57202	556.73975	-367.33563	-412.6236	1016.9207	-615.83728	-677.68622	1165.5918	-406.91858	-355.65778	948.62689	-123.86627	-423.56519	1028.7028	-77.972069	-432.27496	712.88055	251.60712	-422.06381	812.05542	334.89636
439	2.185	-504.64041	160.34274	-536.25586	-549.54419	167.59804	-502.48969	-384.6409	579.08044	-402.19571	-484.99399	556.20111	-368.09003	-411.37354	1018.195	-614.12701	-679.57605	1163.7318	-406.04834	-359.78003	943.22546	-123.08083	-429.63699	1021.0375	-76.03244	-440.98996	694.28583	243.29631	-431.49857	790.05511	329.58447
440	2.19	-503.34244	159.77109	-537.28662	-548.3642	167.10551	-503.914	-384.45047	578.9046	-402.25348	-485.55435	555.58563	-368.97382	-410.70782	1019.0811	-611.8266	-681.38483	1161.7858	-405.27255	-362.90836	938.41833	-122.571	-435.90054	1013.0246	-74.019142	-450.45978	675.79968	234.45035	-441.56836	767.28894	323.14694
441	2.195	-501.94168	159.22052	-538.36719	-547.29065	166.52431	-505.46503	-384.6922	578.47748	-402.24042	-486.53452	554.94769	-369.89395	-410.2402	1019.8103	-609.20697	-682.89691	1159.7189	-404.61533	-365.97638	933.57635	-121.54337	-442.34628	1004.7575	-72.133583	-460.04422	657.18628	224.7916	-451.92178	743.828	316.0614
442	2.2	-500.78619	158.48279	-539.50128	-546.36005	165.84389	-506.99597	-384.84583	577.88757	-402.19293	-487.41989	553.87164	-370.52744	-409.29819	1020.4798	-606.98126	-684.34045	1157.5593	-404.12027	-368.9632	928.37769	-120.1089	-448.87372	996.27887	-70.378693	-469.77298	638.64801	214.27299	-462.74344	719.75751	307.43402
